<?xml version="1.0" encoding="UTF-8"?>
<svg width="72px" height="68px" viewBox="0 0 72 68" version="1.1" xmlns="http://www.w3.org/2000/svg" xmlns:xlink="http://www.w3.org/1999/xlink">
    <!-- Generator: Sketch 52.6 (67491) - http://www.bohemiancoding.com/sketch -->
    <title>Icon-Gradient-Black Copy</title>
    <desc>Created with Sketch.</desc>
    <g id="Page-1" stroke="none" stroke-width="1" fill="none" fill-rule="evenodd">
        <g id="Icon-Gradient-Black-Copy" transform="translate(4.000000, 4.000000)">
            <path d="M32.0197938,42.6428254 L13.0771134,28.6525028 C9.64550461,26.1342803 5.6867691,24.3893826 1.48453608,23.5428254 L10.1245361,1.54605118 C10.3011598,1.11541742 10.6115542,0.749850678 11.0119588,0.500889893 C11.8344529,0.00163242454 12.888108,0.0570103867 13.651134,0.639599571 C14.0223917,0.931004464 14.290213,1.32947102 14.4164948,1.77830925 L20.2391753,19.1976641 L43.8169072,19.1976641 L49.6395876,1.77830925 C49.769317,1.33190274 50.0365603,0.935422501 50.4049485,0.642825377 C51.1679745,0.0602361931 52.2216295,0.00485823099 53.0441237,0.5041157 C53.4454289,0.752075265 53.7560948,1.11796173 53.9315464,1.54927699 L62.5550515,23.5557286 C58.3531315,24.39909 54.3935473,26.1394592 50.9591753,28.6525028 L32.0197938,42.6557286 C25.7174834,47.3052164 25.5637113,47.4137931 32.0197938,42.6428254 Z" id="Shape" fill="#2E2E2E" opacity="0.600000024"></path>
            <path d="M62.6243299,23.783871 L62.5352577,23.5612903 C58.3333377,24.4046517 54.3737535,26.1450209 50.9393814,28.6580645 L32,42.6612903 C38.4494845,47.4322581 44.0643299,51.5774194 44.0643299,51.5774194 L57.28,41.9 L57.3129897,41.8741935 C63.0038186,37.6721463 65.1689371,30.2977942 62.6243299,23.783871 Z" id="Path" fill="#7E7E7E" opacity="0.600000024"></path>
            <path d="M19.9356701,51.5774194 L26.4346392,56.3870968 L30.3934021,59.3096774 C31.3450563,60.0162045 32.6615417,60.0162045 33.6131959,59.3096774 L37.5719588,56.3870968 L44.0709278,51.5774194 C44.0709278,51.5774194 38.4494845,47.4193548 32,42.6612903 C25.5505155,47.4193548 19.9356701,51.5774194 19.9356701,51.5774194 Z" id="Path" fill="#CFCFCF" opacity="0.600000024"></path>
            <path d="M13.0573196,28.6580645 C9.6257108,26.1398421 5.66697528,24.3949444 1.46474227,23.5483871 L1.37896907,23.7709677 C-1.1712957,30.2866261 0.994555688,37.666105 6.69030928,41.8677419 L6.72,41.8903226 L6.79917526,41.9451613 L19.9356701,51.5645161 C19.9356701,51.5645161 25.5439175,47.4193548 32,42.6483871 L13.0573196,28.6580645 Z" id="Path" fill="#7E7E7E" opacity="0.600000024"></path>
            <path d="M21.6596265,17.2032258 L42.3569996,17.2032258 L47.6992483,1.22574478 C47.9450086,0.380068719 48.4493557,-0.36817706 49.1714396,-0.941234212 C50.5892234,-2.023747 52.5364461,-2.12608906 54.0756059,-1.19173928 C54.8365129,-0.72158801 55.4284927,-0.0243842173 55.7738852,0.82513861 L64.3920963,22.818222 L64.4811685,23.0408026 L64.4875492,23.0569501 C67.3564515,30.4104246 64.9143495,38.7325825 58.5518616,43.4365684 L58.4682077,43.5007257 L45.2606842,53.1721478 L38.7598308,57.9832181 L34.8053915,60.9025979 C33.1458247,62.1346934 30.8607732,62.1346934 29.20553,60.9057987 L25.2448828,57.9818253 L18.7540673,53.1781502 L5.6604034,43.589302 L5.50930006,43.4822414 L5.50303856,43.4772102 C-0.917865582,38.7406451 -3.36478589,30.4035094 -0.487257508,23.0518027 L-0.396806506,22.8171989 L8.25433476,0.792671491 C8.59100499,-0.0281785699 9.18001295,-0.72188219 9.95438182,-1.20322853 C11.4800488,-2.12931486 13.4272715,-2.0269728 14.8662034,-0.928087848 C15.5700872,-0.375600565 16.0803933,0.383636823 16.2935368,1.14982518 L21.6596265,17.2032258 Z" id="Path" stroke="#000000" stroke-width="4"></path>
        </g>
    </g>
</svg>