<?xml version="1.0" encoding="UTF-8"?>
<svg width="64px" height="60px" viewBox="0 0 64 60" version="1.1" xmlns="http://www.w3.org/2000/svg" xmlns:xlink="http://www.w3.org/1999/xlink">
    <!-- Generator: Sketch 52.6 (67491) - http://www.bohemiancoding.com/sketch -->
    <title>Icon-Gradient-Any Copy</title>
    <desc>Created with Sketch.</desc>
    <g id="Page-1" stroke="none" stroke-width="1" fill="none" fill-rule="evenodd">
        <g id="Icon-Gradient-Any-Copy">
            <path d="M62.6243299,23.783871 L62.5352577,23.5612903 L53.9117526,1.55483871 C53.736301,1.12352344 53.4256351,0.757636985 53.0243299,0.509677419 C52.2018357,0.0104199508 51.1481807,0.0657979129 50.3851546,0.648387097 C50.0167665,0.940984221 49.7495232,1.33746446 49.6197938,1.78387097 L43.7971134,19.2032258 L20.2193814,19.2032258 L14.396701,1.78387097 C14.2704192,1.33503274 14.0025979,0.936566184 13.6313402,0.64516129 C12.8683141,0.0625721065 11.8146591,0.00719414433 10.9921649,0.506451613 C10.5917604,0.755412397 10.281366,1.12097914 10.1047423,1.5516129 L1.46474227,23.5483871 L1.37896907,23.7709677 C-1.1712957,30.2866261 0.994555688,37.666105 6.69030928,41.8677419 L6.72,41.8903226 L6.79917526,41.9451613 L19.9356701,51.5645161 L26.4346392,56.3741935 L30.3934021,59.2967742 C31.3450563,60.0033013 32.6615417,60.0033013 33.6131959,59.2967742 L37.5719588,56.3741935 L44.0709278,51.5645161 L57.2865979,41.8870968 L57.3195876,41.8612903 C63.0020192,37.6592757 65.1637057,30.2927139 62.6243299,23.783871 Z" id="Path" fill="#E24329"></path>
            <path d="M62.6243299,23.783871 L62.5352577,23.5612903 C58.3333377,24.4046517 54.3737535,26.1450209 50.9393814,28.6580645 L32,42.6612903 C38.4494845,47.4322581 44.0643299,51.5774194 44.0643299,51.5774194 L57.28,41.9 L57.3129897,41.8741935 C63.0038186,37.6721463 65.1689371,30.2977942 62.6243299,23.783871 Z" id="Path" fill="#FC6D26"></path>
            <path d="M19.9356701,51.5774194 L26.4346392,56.3870968 L30.3934021,59.3096774 C31.3450563,60.0162045 32.6615417,60.0162045 33.6131959,59.3096774 L37.5719588,56.3870968 L44.0709278,51.5774194 C44.0709278,51.5774194 38.4494845,47.4193548 32,42.6612903 C25.5505155,47.4193548 19.9356701,51.5774194 19.9356701,51.5774194 Z" id="Path" fill="#FCA326"></path>
            <path d="M13.0573196,28.6580645 C9.6257108,26.1398421 5.66697528,24.3949444 1.46474227,23.5483871 L1.37896907,23.7709677 C-1.1712957,30.2866261 0.994555688,37.666105 6.69030928,41.8677419 L6.72,41.8903226 L6.79917526,41.9451613 L19.9356701,51.5645161 C19.9356701,51.5645161 25.5439175,47.4193548 32,42.6483871 L13.0573196,28.6580645 Z" id="Path" fill="#FC6D26"></path>
        </g>
    </g>
</svg>