<?xml version="1.0" encoding="UTF-8"?>
<svg width="18px" height="17px" viewBox="0 0 18 17" version="1.1" xmlns="http://www.w3.org/2000/svg" xmlns:xlink="http://www.w3.org/1999/xlink">
    <!-- Generator: Sketch 52.6 (67491) - http://www.bohemiancoding.com/sketch -->
    <title>Icon-Gradient-White</title>
    <desc>Created with Sketch.</desc>
    <g id="Page-1" stroke="none" stroke-width="1" fill="none" fill-rule="evenodd">
        <g id="Icon-Gradient-White" transform="translate(1.000000, 1.000000)">
            <path d="M8.00494845,10.6607063 L3.26927835,7.1631257 C2.41137615,6.53357009 1.42169227,6.09734566 0.371134021,5.88570634 L2.53113402,0.386512796 C2.57528994,0.278854354 2.65288854,0.187462669 2.75298969,0.125222473 C2.95861323,0.000408106135 3.22202699,0.0142525967 3.41278351,0.159899893 C3.50559793,0.232751116 3.57255326,0.332367755 3.60412371,0.444577312 L5.05979381,4.79941602 L10.9542268,4.79941602 L12.4098969,0.444577312 C12.4423292,0.332975685 12.5091401,0.233855625 12.6012371,0.160706344 C12.7919936,0.0150590483 13.0554074,0.00121455775 13.2610309,0.126028925 C13.3613572,0.188018816 13.4390237,0.279490431 13.4828866,0.387319247 L15.6387629,5.88893215 C14.5882829,6.09977249 13.5983868,6.5348648 12.7397938,7.1631257 L8.00494845,10.6639322 C6.42937086,11.8263041 6.39092784,11.8534483 8.00494845,10.6607063 Z" id="Shape" fill="#ECECEC" opacity="0.699999988"></path>
            <path d="M15.6560825,5.94596774 L15.6338144,5.89032258 C14.5833344,6.10116292 13.5934384,6.53625523 12.7348454,7.16451613 L8,10.6653226 C9.61237113,11.8580645 11.0160825,12.8943548 11.0160825,12.8943548 L14.32,10.475 L14.3282474,10.4685484 C15.7509546,9.41803657 16.2922343,7.57444855 15.6560825,5.94596774 Z" id="Path" fill="#8D8D8D" opacity="0.699999988"></path>
            <path d="M4.98391753,12.8943548 L6.60865979,14.0967742 L7.59835052,14.8274194 C7.83626407,15.0040511 8.16538542,15.0040511 8.40329897,14.8274194 L9.39298969,14.0967742 L11.017732,12.8943548 C11.017732,12.8943548 9.61237113,11.8548387 8,10.6653226 C6.38762887,11.8548387 4.98391753,12.8943548 4.98391753,12.8943548 Z" id="Path" fill="#3A3A3A" opacity="0.699999988"></path>
            <path d="M3.2643299,7.16451613 C2.4064277,6.53496051 1.41674382,6.09873609 0.366185567,5.88709677 L0.344742268,5.94274194 C-0.292823924,7.57165651 0.248638922,9.41652626 1.67257732,10.4669355 L1.68,10.4725806 L1.69979381,10.4862903 L4.98391753,12.891129 C4.98391753,12.891129 6.38597938,11.8548387 8,10.6620968 L3.2643299,7.16451613 Z" id="Path" fill="#8D8D8D" opacity="0.699999988"></path>
            <path d="M5.41490664,4.30080645 L10.5892499,4.30080645 L11.9248121,0.306436194 C11.9862522,0.0950171797 12.1123389,-0.092044265 12.2928599,-0.235308553 C12.6473058,-0.505936749 13.1341115,-0.531522264 13.5189015,-0.29793482 C13.7091282,-0.180397002 13.8571232,-0.00609605434 13.9434713,0.206284652 L16.0980241,5.7045555 L16.1202921,5.76020066 L16.1218873,5.76423752 C16.8391129,7.60260614 16.2285874,9.68314564 14.6379654,10.8591421 L14.6170519,10.8751814 L11.3151711,13.293037 L9.68995771,14.4958045 L8.70134787,15.2256495 C8.28645618,15.5336734 7.71519331,15.5336734 7.30138249,15.2264497 L6.3112207,14.4954563 L4.68851683,13.2945375 L1.41510085,10.8973255 L1.37732502,10.8705604 L1.37575964,10.8693026 C-0.229466396,9.68516128 -0.841196474,7.60087734 -0.121814377,5.76295068 L-0.0992016265,5.70429973 L2.06358369,0.198167873 C2.14775125,-0.00704464247 2.29500324,-0.180470548 2.48859545,-0.300807131 C2.87001219,-0.532328716 3.35681787,-0.506743201 3.71655085,-0.232021962 C3.89252179,-0.0939001413 4.02009833,0.0959092057 4.0733842,0.287456296 L5.41490664,4.30080645 Z" id="Path" stroke="#FFFFFF"></path>
        </g>
    </g>
</svg>