<?xml version="1.0" encoding="UTF-8"?>
<svg width="16px" height="15px" viewBox="0 0 16 15" version="1.1" xmlns="http://www.w3.org/2000/svg" xmlns:xlink="http://www.w3.org/1999/xlink">
    <!-- Generator: Sketch 52.6 (67491) - http://www.bohemiancoding.com/sketch -->
    <title>Icon-Gradient-Any</title>
    <desc>Created with Sketch.</desc>
    <g id="Page-1" stroke="none" stroke-width="1" fill="none" fill-rule="evenodd">
        <g id="Icon-Gradient-Any">
            <path d="M15.6560825,5.94596774 L15.6338144,5.89032258 L13.4779381,0.388709677 C13.4340752,0.280880861 13.3564088,0.189409246 13.2560825,0.127419355 C13.0504589,0.0026049877 12.7870452,0.0164494782 12.5962887,0.162096774 C12.5041916,0.235246055 12.4373808,0.334366115 12.4049485,0.445967742 L10.9492784,4.80080645 L5.05484536,4.80080645 L3.59917526,0.445967742 C3.5676048,0.333758185 3.50064948,0.234141546 3.40783505,0.161290323 C3.21707853,0.0156430266 2.95366478,0.00179853608 2.74804124,0.126612903 C2.64794009,0.188853099 2.57034149,0.280244784 2.52618557,0.387903226 L0.366185567,5.88709677 L0.344742268,5.94274194 C-0.292823924,7.57165651 0.248638922,9.41652626 1.67257732,10.4669355 L1.68,10.4725806 L1.69979381,10.4862903 L4.98391753,12.891129 L6.60865979,14.0935484 L7.59835052,14.8241935 C7.83626407,15.0008253 8.16538542,15.0008253 8.40329897,14.8241935 L9.39298969,14.0935484 L11.017732,12.891129 L14.3216495,10.4717742 L14.3298969,10.4653226 C15.7505048,9.41481893 16.2909264,7.57317847 15.6560825,5.94596774 Z" id="Path" fill="#E24329"></path>
            <path d="M15.6560825,5.94596774 L15.6338144,5.89032258 C14.5833344,6.10116292 13.5934384,6.53625523 12.7348454,7.16451613 L8,10.6653226 C9.61237113,11.8580645 11.0160825,12.8943548 11.0160825,12.8943548 L14.32,10.475 L14.3282474,10.4685484 C15.7509546,9.41803657 16.2922343,7.57444855 15.6560825,5.94596774 Z" id="Path" fill="#FC6D26"></path>
            <path d="M4.98391753,12.8943548 L6.60865979,14.0967742 L7.59835052,14.8274194 C7.83626407,15.0040511 8.16538542,15.0040511 8.40329897,14.8274194 L9.39298969,14.0967742 L11.017732,12.8943548 C11.017732,12.8943548 9.61237113,11.8548387 8,10.6653226 C6.38762887,11.8548387 4.98391753,12.8943548 4.98391753,12.8943548 Z" id="Path" fill="#FCA326"></path>
            <path d="M3.2643299,7.16451613 C2.4064277,6.53496051 1.41674382,6.09873609 0.366185567,5.88709677 L0.344742268,5.94274194 C-0.292823924,7.57165651 0.248638922,9.41652626 1.67257732,10.4669355 L1.68,10.4725806 L1.69979381,10.4862903 L4.98391753,12.891129 C4.98391753,12.891129 6.38597938,11.8548387 8,10.6620968 L3.2643299,7.16451613 Z" id="Path" fill="#FC6D26"></path>
        </g>
    </g>
</svg>