<?xml version="1.0" encoding="UTF-8"?>
<svg width="22px" height="22px" viewBox="0 0 22 22" version="1.1" xmlns="http://www.w3.org/2000/svg" xmlns:xlink="http://www.w3.org/1999/xlink">
    <!-- Generator: Sketch 52.6 (67491) - http://www.bohemiancoding.com/sketch -->
    <title>GitLab-Logo-simple-white</title>
    <desc>Created with Sketch.</desc>
    <g id="GitLab-Logo-simple-white" stroke="none" stroke-width="1" fill="none" fill-rule="evenodd">
        <path d="M18.1277282,9.44580532 L18.1262547,9.44138503 L18.1247813,9.43696473 L16.6056727,4.93931301 C16.4156,4.38824938 15.9013721,4 15.2972649,4 C14.6931577,4 14.1789299,4.38824938 13.991804,4.9297357 L13.9888572,4.93931301 L12.7231789,8.68551432 L9.27608435,8.68551432 L8.01040611,4.93931301 C7.82033336,4.38824938 7.30610553,4 6.70199834,4 C6.09789115,4 5.58366332,4.38824938 5.39653743,4.9297357 L5.39359057,4.93931301 L3.87153513,9.44580532 L3.06998803,11.8828621 C3.02578506,12.0117875 3,12.1606041 3,12.3153145 C3,12.7698683 3.21954139,13.172852 3.55916751,13.4240722 L3.56285109,13.4270191 L10.1807717,18.3018694 C10.4069435,18.4698407 10.691316,18.5707708 11,18.5707708 C11.308684,18.5707708 11.5930565,18.4698407 11.8229119,18.2989226 L11.8192283,18.3018694 L18.4371489,13.4270191 C18.7797219,13.1735887 19,12.770605 19,12.3160512 C19,12.1613408 18.9742149,12.0125242 18.9278018,11.8740215 L18.9307487,11.8835989 L18.1277282,9.44580532 Z M17.7807349,12.537066 L11.1628143,17.4119164 C11.1178746,17.4458053 11.0604107,17.4656967 10.9992633,17.4656967 C10.9381158,17.4656967 10.880652,17.4458053 10.8349756,17.4111797 L10.8357123,17.4119164 L4.21779169,12.537066 C4.1492771,12.4862326 4.10507413,12.4051938 4.10507413,12.3145778 C4.10507413,12.2836357 4.11023114,12.2541671 4.11980845,12.2261718 L4.11907174,12.228382 L4.92061884,9.79058845 L6.43972742,5.29293673 C6.47803665,5.18242932 6.58044019,5.10507413 6.70126163,5.10507413 C6.82208306,5.10507413 6.92522332,5.18242932 6.96205912,5.29072659 L6.96279584,5.29293673 L8.48190441,9.79058845 L13.5151487,9.79058845 L15.0342573,5.29293673 C15.0725665,5.18242932 15.1749701,5.10507413 15.2957915,5.10507413 C15.4166129,5.10507413 15.5197532,5.18242932 15.556589,5.29072659 L15.5573257,5.29293673 L17.0764343,9.79058845 L17.8779814,12.2276453 C17.886822,12.2534303 17.891979,12.282899 17.891979,12.3138411 C17.891979,12.4044571 17.847776,12.4854959 17.7799982,12.5355926 L17.7792614,12.5363293 L17.7807349,12.537066 Z" id="Shape-Copy" fill="#FFFFFF" fill-rule="nonzero"></path>
    </g>
</svg>