<svg width="22" height="22" viewBox="0 0 22 22" fill="none" xmlns="http://www.w3.org/2000/svg">
<path d="M4.34182 9.52551L3.53997 11.9642C3.51416 12.0414 3.5 12.1238 3.5 12.2095C3.5 12.4665 3.62576 12.6933 3.81479 12.8335L3.81618 12.8346L10.4341 17.7094L10.4473 17.7188C10.5766 17.8105 10.7326 17.8606 10.8942 17.8606C11.0619 17.8606 11.2241 17.8067 11.356 17.7081L17.9722 12.8346C17.9907 12.8209 18.0081 12.8062 18.0243 12.7904C18.1845 12.6489 18.2869 12.4405 18.2869 12.2088C18.2869 12.1247 18.2733 12.0417 18.2472 11.9642L17.4463 9.52929L15.9266 5.02984L15.9259 5.02763L15.9249 5.02464C15.8202 4.71702 15.5292 4.5 15.1907 4.5C14.8478 4.5 14.5618 4.72105 14.4567 5.02409L13.0512 9.18551H8.7357L7.33175 5.02881L7.33134 5.02754L7.33035 5.02464C7.22572 4.71702 6.93463 4.5 6.59619 4.5C6.25325 4.5 5.96727 4.72105 5.86222 5.02409L4.34182 9.52551Z" fill="white"/>
</svg>
