<svg width="16" height="16" viewBox="0 0 16 16" fill="none" xmlns="http://www.w3.org/2000/svg">
<g clip-path="url(#clip0_357_719)">
<path fill-rule="evenodd" clip-rule="evenodd" d="M7.976 0C5.86071 0.000265156 3.83214 0.840676 2.33641 2.33641C0.840676 3.83214 0.000265156 5.86071 0 7.976C0 11.498 2.3 14.483 5.431 15.56C5.823 15.609 5.969 15.364 5.969 15.168V13.798C3.768 14.288 3.279 12.722 3.279 12.722C2.936 11.792 2.398 11.547 2.398 11.547C1.664 11.058 2.446 11.058 2.446 11.058C3.229 11.107 3.67 11.89 3.67 11.89C4.404 13.113 5.529 12.77 5.97 12.575C6.018 12.037 6.263 11.695 6.459 11.499C4.697 11.303 2.838 10.618 2.838 7.535C2.838 6.655 3.131 5.969 3.67 5.382C3.62 5.235 3.327 4.404 3.768 3.327C3.768 3.327 4.453 3.131 5.969 4.159C6.605 3.963 7.291 3.914 7.976 3.914C8.661 3.914 9.346 4.012 9.982 4.159C11.499 3.132 12.184 3.327 12.184 3.327C12.624 4.404 12.33 5.235 12.281 5.431C12.8199 6.01808 13.1171 6.7871 13.113 7.584C13.113 10.667 11.253 11.303 9.493 11.499C9.786 11.743 10.031 12.232 10.031 12.966V15.168C10.031 15.364 10.177 15.608 10.569 15.56C12.155 15.0248 13.5327 14.0046 14.5073 12.6436C15.4818 11.2827 16.004 9.64989 16 7.976C15.951 3.572 12.38 0 7.976 0Z" fill="black"/>
</g>
<defs>
<clipPath id="clip0_357_719">
<rect width="16" height="16" fill="white"/>
</clipPath>
</defs>
</svg>
