<svg width="1024" height="1024" viewBox="0 0 1024 1024" fill="none" xmlns="http://www.w3.org/2000/svg">
<mask id="mask0_123_918" style="mask-type:alpha" maskUnits="userSpaceOnUse" x="100" y="100" width="824" height="824">
<rect x="100" y="100" width="824" height="824" rx="184" fill="white"/>
<rect x="100" y="100" width="824" height="824" rx="184" fill="url(#paint0_linear_123_918)"/>
</mask>
<g mask="url(#mask0_123_918)">
<g filter="url(#filter0_d_123_918)">
<rect x="100" y="100" width="824" height="824" rx="184" fill="white"/>
<rect x="100" y="100" width="824" height="824" rx="184" fill="url(#paint1_linear_123_918)"/>
<rect x="100" y="100" width="824" height="824" rx="184" fill="url(#paint2_linear_123_918)"/>
</g>
<path d="M233.946 865.913L232.187 869.505L233.946 865.913ZM158.087 790.053L154.495 791.813L158.087 790.053ZM865.914 790.053L862.321 788.293L865.914 790.053ZM790.054 865.913L788.294 862.32L790.054 865.913ZM790.054 158.086L791.814 154.494L790.054 158.086ZM402.848 145.199H621.152V137.199H402.848V145.199ZM878.8 402.847V621.151H886.8V402.847H878.8ZM621.152 878.799H402.848V886.799H621.152V878.799ZM145.2 621.151V402.847H137.2V621.151H145.2ZM402.848 878.799C357.974 878.799 324.551 878.796 298.031 876.701C271.555 874.609 252.3 870.45 235.706 862.32L232.187 869.505C250.062 878.262 270.448 882.546 297.4 884.676C324.309 886.802 358.101 886.799 402.848 886.799V878.799ZM137.2 621.151C137.2 665.898 137.197 699.691 139.323 726.599C141.453 753.552 145.737 773.937 154.495 791.813L161.679 788.293C153.55 771.699 149.391 752.444 147.299 725.969C145.203 699.449 145.2 666.026 145.2 621.151H137.2ZM235.706 862.32C203.5 846.543 177.457 820.5 161.679 788.293L154.495 791.813C171.054 825.614 198.386 852.946 232.187 869.505L235.706 862.32ZM878.8 621.151C878.8 666.026 878.797 699.449 876.702 725.969C874.61 752.444 870.451 771.699 862.321 788.293L869.506 791.813C878.263 773.937 882.547 753.552 884.677 726.599C886.803 699.691 886.8 665.898 886.8 621.151H878.8ZM621.152 886.799C665.899 886.799 699.692 886.802 726.6 884.676C753.553 882.546 773.938 878.262 791.814 869.505L788.294 862.32C771.7 870.45 752.445 874.609 725.97 876.701C699.45 878.796 666.027 878.799 621.152 878.799V886.799ZM862.321 788.293C846.544 820.5 820.501 846.543 788.294 862.32L791.814 869.505C825.615 852.946 852.947 825.614 869.506 791.813L862.321 788.293ZM621.152 145.199C666.027 145.199 699.45 145.202 725.97 147.298C752.445 149.39 771.7 153.549 788.294 161.678L791.814 154.494C773.938 145.736 753.553 141.452 726.6 139.322C699.692 137.196 665.899 137.199 621.152 137.199V145.199ZM886.8 402.847C886.8 358.1 886.803 324.308 884.677 297.399C882.547 270.447 878.263 250.061 869.506 232.186L862.321 235.705C870.451 252.299 874.61 271.554 876.702 298.03C878.797 324.549 878.8 357.973 878.8 402.847H886.8ZM788.294 161.678C820.501 177.456 846.544 203.499 862.321 235.705L869.506 232.186C852.947 198.385 825.615 171.053 791.814 154.494L788.294 161.678ZM402.848 137.199C358.101 137.199 324.309 137.196 297.4 139.322C270.448 141.452 250.062 145.736 232.187 154.494L235.706 161.678C252.3 153.549 271.555 149.39 298.031 147.298C324.55 145.202 357.974 145.199 402.848 145.199V137.199ZM145.2 402.847C145.2 357.973 145.203 324.55 147.299 298.03C149.391 271.554 153.55 252.299 161.679 235.705L154.495 232.186C145.737 250.061 141.453 270.447 139.323 297.399C137.197 324.308 137.2 358.1 137.2 402.847H145.2ZM232.187 154.494C198.386 171.053 171.054 198.385 154.495 232.186L161.679 235.705C177.457 203.499 203.5 177.456 235.706 161.678L232.187 154.494Z" fill="white"/>
<g opacity="0.2">
<mask id="mask1_123_918" style="mask-type:alpha" maskUnits="userSpaceOnUse" x="140" y="141" width="743" height="742">
<path d="M716.867 141.229H306.468C215.01 141.229 140.868 215.37 140.868 306.829V717.228C140.868 808.687 215.01 882.828 306.468 882.828H716.867C808.325 882.828 882.467 808.687 882.467 717.228V306.829C882.467 215.37 808.325 141.229 716.867 141.229Z" fill="#D9D9D9"/>
</mask>
<g mask="url(#mask1_123_918)">
<path d="M332.338 141.719H325.036V883.319H332.338V141.719Z" fill="#BCE4FA"/>
<path d="M703.168 141.719H695.866V883.319H703.168V141.719Z" fill="#BCE4FA"/>
<path d="M514.946 141.719H507.645V883.319H514.946V141.719Z" fill="#BCE4FA"/>
<path d="M882.955 517.704V510.402L141.356 510.402V517.704H882.955Z" fill="#BCE4FA"/>
<path d="M882.955 332.696V325.395L141.356 325.395V332.696L882.955 332.696Z" fill="#BCE4FA"/>
<path d="M882.955 703.122V695.82H141.356V703.122H882.955Z" fill="#BCE4FA"/>
<rect width="1048.85" height="7.30142" transform="matrix(-0.707106 -0.707107 0.707106 -0.707107 878.8 886.463)" fill="#BCE4FA"/>
<rect width="1048.85" height="7.30142" transform="matrix(0.707106 -0.707107 0.707106 0.707107 137.706 882.812)" fill="#BCE4FA"/>
<g filter="url(#filter1_d_123_918)">
<path d="M773.298 773.661C917.794 629.165 917.794 394.89 773.298 250.394C628.802 105.897 394.527 105.897 250.031 250.394C105.535 394.89 105.535 629.165 250.031 773.661C394.527 918.158 628.802 918.158 773.298 773.661Z" stroke="url(#paint3_linear_123_918)" stroke-width="7.30142" shape-rendering="crispEdges"/>
</g>
<g filter="url(#filter2_d_123_918)">
<path d="M699.771 700.133C802.183 597.721 802.183 431.678 699.771 329.266C597.359 226.853 431.316 226.853 328.904 329.266C226.492 431.678 226.492 597.721 328.904 700.133C431.316 802.545 597.359 802.545 699.771 700.133Z" stroke="url(#paint4_linear_123_918)" stroke-width="7.30142" shape-rendering="crispEdges"/>
</g>
</g>
</g>
<g filter="url(#filter3_d_123_918)">
<mask id="path-15-outside-1_123_918" maskUnits="userSpaceOnUse" x="227.179" y="212.229" width="569.598" height="598.49" fill="black">
<rect fill="white" x="227.179" y="212.229" width="569.598" height="598.49"/>
<path fill-rule="evenodd" clip-rule="evenodd" d="M520.849 556.171L592.273 532.964C599.267 544.447 609.354 553.879 621.529 560.083C638.809 568.887 658.879 570.467 677.324 564.474C695.769 558.481 711.077 545.406 719.882 528.126C728.687 510.846 730.266 490.776 724.273 472.331C718.28 453.886 705.205 438.578 687.925 429.773C670.645 420.968 650.575 419.389 632.13 425.382C613.685 431.375 598.377 444.45 589.572 461.73C583.369 473.905 580.752 487.465 581.843 500.866L510.42 524.073C453.092 542.7 391.863 515.147 366.969 461.915C378.095 454.944 387.237 445.042 393.298 433.147C402.102 415.867 403.682 395.797 397.689 377.352C391.696 358.908 378.621 343.599 361.341 334.794C344.061 325.99 323.991 324.41 305.546 330.403C287.101 336.396 271.793 349.471 262.988 366.751C254.183 384.031 252.604 404.101 258.597 422.546C264.59 440.991 277.665 456.299 294.945 465.104C307.155 471.325 320.758 473.939 334.196 472.824C334.324 473.458 334.488 474.088 334.69 474.71L390.314 645.901C390.516 646.523 390.752 647.129 391.022 647.717C379.495 654.713 370.026 664.824 363.805 677.034C355 694.314 353.421 714.384 359.414 732.829C365.407 751.273 378.481 766.582 395.762 775.387C413.042 784.191 433.112 785.771 451.557 779.778C470.001 773.785 485.31 760.71 494.115 743.43C502.919 726.15 504.499 706.08 498.506 687.635C492.513 669.19 479.438 653.882 462.158 645.077C449.948 638.855 436.344 636.241 422.906 637.357C422.778 636.723 422.614 636.093 422.412 635.471L391.073 539.02C395.539 541.927 400.176 544.609 404.968 547.051C440.857 565.338 482.541 568.618 520.849 556.171ZM340.31 437.397C350.244 434.166 358.488 427.122 363.227 417.813C367.967 408.504 368.815 397.694 365.584 387.76C362.353 377.827 355.308 369.583 346 364.843C336.691 360.104 325.881 359.256 315.947 362.487C311.028 364.087 306.473 366.639 302.541 370C298.609 373.36 295.377 377.462 293.03 382.071C288.291 391.38 287.443 402.19 290.674 412.124C293.904 422.057 300.949 430.301 310.258 435.041C319.566 439.78 330.377 440.628 340.31 437.397ZM441.127 747.68C446.046 746.08 450.601 743.527 454.533 740.167C458.465 736.807 461.697 732.705 464.044 728.096C466.391 723.486 467.807 718.46 468.211 713.304C468.616 708.147 468 702.962 466.401 698.043C464.801 693.124 462.248 688.569 458.888 684.637C455.527 680.705 451.426 677.473 446.816 675.126C442.207 672.779 437.181 671.363 432.024 670.959C426.868 670.554 421.682 671.17 416.764 672.769C406.83 676 398.587 683.045 393.847 692.354C389.107 701.662 388.26 712.473 391.49 722.406C394.721 732.34 401.766 740.583 411.075 745.323C420.383 750.063 431.194 750.91 441.127 747.68ZM666.895 532.376C676.828 529.145 685.072 522.1 689.811 512.792C694.551 503.483 695.399 492.673 692.168 482.739C688.937 472.805 681.892 464.562 672.584 459.822C663.275 455.082 652.465 454.235 642.531 457.465C637.612 459.065 633.057 461.618 629.125 464.978C625.193 468.339 621.961 472.44 619.614 477.05C617.267 481.659 615.851 486.685 615.447 491.842C615.043 496.998 615.658 502.184 617.258 507.102C618.857 512.021 621.41 516.576 624.771 520.509C628.131 524.441 632.233 527.672 636.842 530.019C641.451 532.366 646.477 533.782 651.634 534.186C656.79 534.591 661.976 533.975 666.895 532.376Z"/>
</mask>
<path fill-rule="evenodd" clip-rule="evenodd" d="M520.849 556.171L592.273 532.964C599.267 544.447 609.354 553.879 621.529 560.083C638.809 568.887 658.879 570.467 677.324 564.474C695.769 558.481 711.077 545.406 719.882 528.126C728.687 510.846 730.266 490.776 724.273 472.331C718.28 453.886 705.205 438.578 687.925 429.773C670.645 420.968 650.575 419.389 632.13 425.382C613.685 431.375 598.377 444.45 589.572 461.73C583.369 473.905 580.752 487.465 581.843 500.866L510.42 524.073C453.092 542.7 391.863 515.147 366.969 461.915C378.095 454.944 387.237 445.042 393.298 433.147C402.102 415.867 403.682 395.797 397.689 377.352C391.696 358.908 378.621 343.599 361.341 334.794C344.061 325.99 323.991 324.41 305.546 330.403C287.101 336.396 271.793 349.471 262.988 366.751C254.183 384.031 252.604 404.101 258.597 422.546C264.59 440.991 277.665 456.299 294.945 465.104C307.155 471.325 320.758 473.939 334.196 472.824C334.324 473.458 334.488 474.088 334.69 474.71L390.314 645.901C390.516 646.523 390.752 647.129 391.022 647.717C379.495 654.713 370.026 664.824 363.805 677.034C355 694.314 353.421 714.384 359.414 732.829C365.407 751.273 378.481 766.582 395.762 775.387C413.042 784.191 433.112 785.771 451.557 779.778C470.001 773.785 485.31 760.71 494.115 743.43C502.919 726.15 504.499 706.08 498.506 687.635C492.513 669.19 479.438 653.882 462.158 645.077C449.948 638.855 436.344 636.241 422.906 637.357C422.778 636.723 422.614 636.093 422.412 635.471L391.073 539.02C395.539 541.927 400.176 544.609 404.968 547.051C440.857 565.338 482.541 568.618 520.849 556.171ZM340.31 437.397C350.244 434.166 358.488 427.122 363.227 417.813C367.967 408.504 368.815 397.694 365.584 387.76C362.353 377.827 355.308 369.583 346 364.843C336.691 360.104 325.881 359.256 315.947 362.487C311.028 364.087 306.473 366.639 302.541 370C298.609 373.36 295.377 377.462 293.03 382.071C288.291 391.38 287.443 402.19 290.674 412.124C293.904 422.057 300.949 430.301 310.258 435.041C319.566 439.78 330.377 440.628 340.31 437.397ZM441.127 747.68C446.046 746.08 450.601 743.527 454.533 740.167C458.465 736.807 461.697 732.705 464.044 728.096C466.391 723.486 467.807 718.46 468.211 713.304C468.616 708.147 468 702.962 466.401 698.043C464.801 693.124 462.248 688.569 458.888 684.637C455.527 680.705 451.426 677.473 446.816 675.126C442.207 672.779 437.181 671.363 432.024 670.959C426.868 670.554 421.682 671.17 416.764 672.769C406.83 676 398.587 683.045 393.847 692.354C389.107 701.662 388.26 712.473 391.49 722.406C394.721 732.34 401.766 740.583 411.075 745.323C420.383 750.063 431.194 750.91 441.127 747.68ZM666.895 532.376C676.828 529.145 685.072 522.1 689.811 512.792C694.551 503.483 695.399 492.673 692.168 482.739C688.937 472.805 681.892 464.562 672.584 459.822C663.275 455.082 652.465 454.235 642.531 457.465C637.612 459.065 633.057 461.618 629.125 464.978C625.193 468.339 621.961 472.44 619.614 477.05C617.267 481.659 615.851 486.685 615.447 491.842C615.043 496.998 615.658 502.184 617.258 507.102C618.857 512.021 621.41 516.576 624.771 520.509C628.131 524.441 632.233 527.672 636.842 530.019C641.451 532.366 646.477 533.782 651.634 534.186C656.79 534.591 661.976 533.975 666.895 532.376Z" fill="url(#paint5_linear_123_918)" shape-rendering="crispEdges"/>
<path d="M592.273 532.964L597.807 529.594L595.142 525.218L590.27 526.801L592.273 532.964ZM621.529 560.083L618.587 565.856L618.587 565.856L621.529 560.083ZM719.882 528.126L714.108 525.184L714.108 525.184L719.882 528.126ZM687.925 429.773L684.983 435.547L684.983 435.547L687.925 429.773ZM589.572 461.73L595.346 464.672L595.346 464.672L589.572 461.73ZM581.843 500.866L583.846 507.029L588.718 505.446L588.302 500.34L581.843 500.866ZM366.969 461.915L363.529 456.424L358.671 459.468L361.1 464.66L366.969 461.915ZM393.298 433.147L387.524 430.205L387.524 430.205L393.298 433.147ZM361.341 334.794L364.283 329.021L364.283 329.021L361.341 334.794ZM262.988 366.751L257.214 363.809L257.214 363.809L262.988 366.751ZM294.945 465.104L297.887 459.33L297.887 459.33L294.945 465.104ZM334.196 472.824L340.549 471.546L339.41 465.888L333.66 466.366L334.196 472.824ZM334.69 474.71L340.853 472.708L340.853 472.708L334.69 474.71ZM390.314 645.901L384.151 647.903L384.151 647.903L390.314 645.901ZM391.022 647.717L394.384 653.257L399.317 650.263L396.913 645.018L391.022 647.717ZM363.805 677.034L358.031 674.092L358.031 674.092L363.805 677.034ZM395.762 775.387L392.82 781.16L392.82 781.16L395.762 775.387ZM494.115 743.43L499.888 746.372L499.888 746.372L494.115 743.43ZM462.158 645.077L465.1 639.303L465.1 639.303L462.158 645.077ZM422.906 637.357L416.553 638.636L417.692 644.293L423.442 643.815L422.906 637.357ZM391.073 539.02L394.607 533.589L379.247 523.592L384.91 541.023L391.073 539.02ZM404.968 547.051L402.026 552.825L402.026 552.825L404.968 547.051ZM363.227 417.813L357.453 414.873L357.453 414.873L363.227 417.813ZM365.584 387.76L359.421 389.764L365.584 387.76ZM346 364.843L348.94 359.069L348.94 359.069L346 364.843ZM315.947 362.487L317.951 368.649L317.951 368.649L315.947 362.487ZM302.541 370L298.331 365.073L298.331 365.073L302.541 370ZM293.03 382.071L298.805 385.011L298.805 385.011L293.03 382.071ZM290.674 412.124L284.511 414.128L290.674 412.124ZM310.258 435.041L313.198 429.266L313.198 429.266L310.258 435.041ZM454.533 740.167L450.324 735.241L450.324 735.241L454.533 740.167ZM441.127 747.68L443.131 753.842L443.131 753.842L441.127 747.68ZM464.044 728.096L458.269 725.155L458.269 725.155L464.044 728.096ZM468.211 713.304L474.671 713.81L474.671 713.81L468.211 713.304ZM466.401 698.043L460.238 700.047L466.401 698.043ZM458.888 684.637L463.814 680.427L463.814 680.427L458.888 684.637ZM432.024 670.959L432.531 664.499L432.531 664.499L432.024 670.959ZM416.764 672.769L414.76 666.607L414.76 666.607L416.764 672.769ZM393.847 692.354L399.622 695.294L399.622 695.294L393.847 692.354ZM411.075 745.323L414.015 739.549L414.015 739.549L411.075 745.323ZM689.811 512.792L684.037 509.851L684.037 509.851L689.811 512.792ZM666.895 532.376L668.899 538.538L668.899 538.538L666.895 532.376ZM672.584 459.822L675.524 454.048L675.524 454.048L672.584 459.822ZM642.531 457.465L640.527 451.303L640.527 451.303L642.531 457.465ZM629.125 464.978L633.335 469.905L633.335 469.905L629.125 464.978ZM615.447 491.842L608.987 491.335L608.987 491.335L615.447 491.842ZM617.258 507.102L611.095 509.107L611.095 509.107L617.258 507.102ZM624.771 520.509L619.844 524.718L619.844 524.718L624.771 520.509ZM636.842 530.019L639.782 524.245L639.782 524.245L636.842 530.019ZM651.634 534.186L652.14 527.726L652.14 527.726L651.634 534.186ZM590.27 526.801L518.847 550.008L522.852 562.334L594.275 539.127L590.27 526.801ZM624.471 554.309C613.375 548.655 604.181 540.059 597.807 529.594L586.738 536.335C594.352 548.835 605.333 559.103 618.587 565.856L624.471 554.309ZM675.321 558.311C658.511 563.773 640.22 562.334 624.471 554.309L618.587 565.856C637.398 575.441 659.247 577.161 679.326 570.637L675.321 558.311ZM714.108 525.184C706.084 540.933 692.132 552.849 675.321 558.311L679.326 570.637C699.406 564.113 716.071 549.879 725.656 531.068L714.108 525.184ZM718.11 474.333C723.572 491.144 722.133 509.435 714.108 525.184L725.656 531.068C735.24 512.256 736.96 490.408 730.436 470.329L718.11 474.333ZM684.983 435.547C700.732 443.571 712.648 457.523 718.11 474.333L730.436 470.329C723.912 450.249 709.678 433.584 690.867 423.999L684.983 435.547ZM634.133 431.545C650.943 426.083 669.234 427.522 684.983 435.547L690.867 423.999C672.055 414.414 650.207 412.695 630.128 419.219L634.133 431.545ZM595.346 464.672C603.37 448.923 617.322 437.007 634.133 431.545L630.128 419.219C610.048 425.743 593.383 439.976 583.798 458.788L595.346 464.672ZM588.302 500.34C587.307 488.126 589.692 475.768 595.346 464.672L583.798 458.788C577.045 472.042 574.196 486.804 575.385 501.392L588.302 500.34ZM512.423 530.236L583.846 507.029L579.841 494.703L508.418 517.91L512.423 530.236ZM361.1 464.66C387.362 520.819 451.946 549.886 512.423 530.236L508.418 517.91C454.238 535.514 396.365 509.476 372.839 459.17L361.1 464.66ZM387.524 430.205C382.001 441.046 373.669 450.07 363.529 456.424L370.41 467.406C382.521 459.818 392.474 449.038 399.071 436.089L387.524 430.205ZM391.526 379.355C396.988 396.165 395.548 414.457 387.524 430.205L399.071 436.089C408.656 417.278 410.376 395.429 403.852 375.35L391.526 379.355ZM358.399 340.568C374.148 348.592 386.064 362.544 391.526 379.355L403.852 375.35C397.328 355.271 383.094 338.605 364.283 329.021L358.399 340.568ZM307.548 336.566C324.359 331.104 342.65 332.544 358.399 340.568L364.283 329.021C345.471 319.436 323.623 317.716 303.544 324.24L307.548 336.566ZM268.762 369.693C276.786 353.944 290.738 342.028 307.548 336.566L303.544 324.24C283.464 330.764 266.799 344.998 257.214 363.809L268.762 369.693ZM264.76 420.544C259.298 403.733 260.737 385.442 268.762 369.693L257.214 363.809C247.629 382.621 245.91 404.469 252.434 424.549L264.76 420.544ZM297.887 459.33C282.138 451.306 270.222 437.354 264.76 420.544L252.434 424.549C258.958 444.628 273.192 461.293 292.003 470.878L297.887 459.33ZM333.66 466.366C321.412 467.383 309.014 465 297.887 459.33L292.003 470.878C305.295 477.651 320.104 480.496 334.732 479.281L333.66 466.366ZM340.853 472.708C340.729 472.325 340.627 471.936 340.549 471.546L327.843 474.102C328.02 474.98 328.248 475.852 328.528 476.713L340.853 472.708ZM396.476 643.898L340.853 472.708L328.528 476.713L384.151 647.903L396.476 643.898ZM396.913 645.018C396.747 644.655 396.601 644.282 396.476 643.898L384.151 647.903C384.43 648.763 384.758 649.603 385.131 650.417L396.913 645.018ZM387.66 642.178C375.111 649.793 364.804 660.8 358.031 674.092L369.579 679.976C375.248 668.848 383.878 659.633 394.384 653.257L387.66 642.178ZM358.031 674.092C348.446 692.903 346.727 714.752 353.251 734.831L365.577 730.826C360.115 714.016 361.554 695.724 369.579 679.976L358.031 674.092ZM353.251 734.831C359.775 754.91 374.008 771.576 392.82 781.16L398.703 769.613C382.955 761.589 371.038 747.637 365.577 730.826L353.251 734.831ZM392.82 781.16C411.631 790.745 433.48 792.465 453.559 785.941L449.554 773.615C432.744 779.077 414.452 777.637 398.703 769.613L392.82 781.16ZM453.559 785.941C473.638 779.417 490.303 765.183 499.888 746.372L488.341 740.488C480.316 756.237 466.364 768.153 449.554 773.615L453.559 785.941ZM499.888 746.372C509.473 727.56 511.193 705.712 504.669 685.632L492.343 689.637C497.805 706.448 496.365 724.739 488.341 740.488L499.888 746.372ZM504.669 685.632C498.144 665.553 483.911 648.888 465.1 639.303L459.216 650.851C474.965 658.875 486.881 672.827 492.343 689.637L504.669 685.632ZM465.1 639.303C451.807 632.53 436.999 629.685 422.37 630.9L423.442 643.815C435.69 642.798 448.088 645.181 459.216 650.851L465.1 639.303ZM416.249 637.474C416.373 637.857 416.475 638.245 416.553 638.636L429.259 636.079C429.082 635.201 428.854 634.329 428.575 633.469L416.249 637.474ZM384.91 541.023L416.249 637.474L428.575 633.469L397.236 537.018L384.91 541.023ZM407.91 541.277C403.322 538.94 398.883 536.372 394.607 533.589L387.538 544.451C392.195 547.482 397.03 550.279 402.026 552.825L407.91 541.277ZM518.847 550.008C482.173 561.924 442.268 558.784 407.91 541.277L402.026 552.825C439.447 571.892 482.909 575.312 522.852 562.334L518.847 550.008ZM357.453 414.873C353.493 422.65 346.606 428.536 338.306 431.235L342.315 443.559C353.883 439.797 363.482 431.593 369.002 420.753L357.453 414.873ZM359.421 389.764C362.121 398.064 361.413 407.096 357.453 414.873L369.002 420.753C374.521 409.913 375.508 397.324 371.746 385.756L359.421 389.764ZM343.059 370.618C350.837 374.578 356.722 381.465 359.421 389.764L371.746 385.756C367.984 374.188 359.78 364.588 348.94 359.069L343.059 370.618ZM317.951 368.649C326.251 365.95 335.282 366.658 343.059 370.618L348.94 359.069C338.1 353.549 325.511 352.562 313.943 356.325L317.951 368.649ZM306.751 374.926C310.036 372.119 313.842 369.986 317.951 368.649L313.943 356.325C308.215 358.188 302.91 361.16 298.331 365.073L306.751 374.926ZM298.805 385.011C300.765 381.16 303.465 377.733 306.751 374.926L298.331 365.073C293.752 368.987 289.989 373.763 287.256 379.131L298.805 385.011ZM296.836 410.12C294.137 401.82 294.845 392.788 298.805 385.011L287.256 379.131C281.736 389.971 280.749 402.56 284.511 414.128L296.836 410.12ZM313.198 429.266C305.421 425.306 299.535 418.419 296.836 410.12L284.511 414.128C288.274 425.696 296.477 435.296 307.318 440.815L313.198 429.266ZM338.306 431.235C330.007 433.934 320.975 433.226 313.198 429.266L307.318 440.815C318.158 446.335 330.747 447.322 342.315 443.559L338.306 431.235ZM450.324 735.241C447.038 738.048 443.232 740.181 439.123 741.517L443.131 753.842C448.859 751.979 454.164 749.006 458.743 745.093L450.324 735.241ZM458.269 725.155C456.309 729.006 453.609 732.433 450.324 735.241L458.743 745.093C463.322 741.18 467.086 736.403 469.819 731.036L458.269 725.155ZM461.751 712.797C461.413 717.105 460.23 721.304 458.269 725.155L469.819 731.036C472.552 725.668 474.201 719.815 474.671 713.81L461.751 712.797ZM460.238 700.047C461.575 704.156 462.089 708.489 461.751 712.797L474.671 713.81C475.142 707.805 474.426 701.767 472.563 696.039L460.238 700.047ZM453.961 688.846C456.769 692.132 458.902 695.938 460.238 700.047L472.563 696.039C470.7 690.311 467.727 685.006 463.814 680.427L453.961 688.846ZM443.876 680.901C447.727 682.861 451.154 685.561 453.961 688.846L463.814 680.427C459.901 675.848 455.124 672.084 449.757 669.351L443.876 680.901ZM431.518 677.419C435.826 677.757 440.025 678.94 443.876 680.901L449.757 669.351C444.389 666.618 438.536 664.969 432.531 664.499L431.518 677.419ZM418.768 678.932C422.877 677.595 427.21 677.081 431.518 677.419L432.531 664.499C426.526 664.028 420.487 664.744 414.76 666.607L418.768 678.932ZM399.622 695.294C403.581 687.517 410.469 681.631 418.768 678.932L414.76 666.607C403.192 670.37 393.592 678.573 388.072 689.413L399.622 695.294ZM397.653 720.402C394.953 712.103 395.662 703.071 399.622 695.294L388.072 689.413C382.553 700.254 381.566 712.842 385.328 724.41L397.653 720.402ZM414.015 739.549C406.238 735.589 400.352 728.701 397.653 720.402L385.328 724.41C389.09 735.979 397.294 745.578 408.134 751.098L414.015 739.549ZM439.123 741.517C430.824 744.217 421.792 743.508 414.015 739.549L408.134 751.098C418.975 756.617 431.563 757.604 443.131 753.842L439.123 741.517ZM684.037 509.851C680.077 517.629 673.19 523.514 664.89 526.213L668.899 538.538C680.467 534.776 690.066 526.572 695.586 515.732L684.037 509.851ZM686.006 484.743C688.705 493.042 687.997 502.074 684.037 509.851L695.586 515.732C701.105 504.892 702.092 492.303 698.33 480.735L686.006 484.743ZM669.644 465.597C677.421 469.557 683.306 476.444 686.006 484.743L698.33 480.735C694.568 469.167 686.364 459.567 675.524 454.048L669.644 465.597ZM644.535 463.628C652.835 460.929 661.866 461.637 669.644 465.597L675.524 454.048C664.684 448.528 652.095 447.541 640.527 451.303L644.535 463.628ZM633.335 469.905C636.62 467.097 640.426 464.964 644.535 463.628L640.527 451.303C634.799 453.166 629.494 456.139 624.915 460.052L633.335 469.905ZM625.389 479.99C627.35 476.139 630.05 472.712 633.335 469.905L624.915 460.052C620.336 463.965 616.573 468.742 613.84 474.109L625.389 479.99ZM621.907 492.348C622.245 488.04 623.428 483.841 625.389 479.99L613.84 474.109C611.107 479.477 609.458 485.33 608.987 491.335L621.907 492.348ZM623.42 505.098C622.083 500.989 621.569 496.656 621.907 492.348L608.987 491.335C608.516 497.34 609.233 503.379 611.095 509.107L623.42 505.098ZM629.697 516.299C626.889 513.014 624.757 509.208 623.42 505.098L611.095 509.107C612.958 514.834 615.931 520.139 619.844 524.718L629.697 516.299ZM639.782 524.245C635.931 522.284 632.504 519.584 629.697 516.299L619.844 524.718C623.757 529.297 628.534 533.061 633.902 535.794L639.782 524.245ZM652.14 527.726C647.832 527.388 643.633 526.205 639.782 524.245L633.902 535.794C639.269 538.527 645.122 540.176 651.127 540.647L652.14 527.726ZM664.89 526.213C660.781 527.55 656.448 528.064 652.14 527.726L651.127 540.647C657.132 541.117 663.171 540.401 668.899 538.538L664.89 526.213Z" fill="white" mask="url(#path-15-outside-1_123_918)"/>
</g>
</g>
<defs>
<filter id="filter0_d_123_918" x="78" y="89" width="868" height="868" filterUnits="userSpaceOnUse" color-interpolation-filters="sRGB">
<feFlood flood-opacity="0" result="BackgroundImageFix"/>
<feColorMatrix in="SourceAlpha" type="matrix" values="0 0 0 0 0 0 0 0 0 0 0 0 0 0 0 0 0 0 127 0" result="hardAlpha"/>
<feOffset dy="11"/>
<feGaussianBlur stdDeviation="11"/>
<feColorMatrix type="matrix" values="0 0 0 0 0 0 0 0 0 0 0 0 0 0 0 0 0 0 0.28 0"/>
<feBlend mode="normal" in2="BackgroundImageFix" result="effect1_dropShadow_123_918"/>
<feBlend mode="normal" in="SourceGraphic" in2="effect1_dropShadow_123_918" result="shape"/>
</filter>
<filter id="filter1_d_123_918" x="108.802" y="116.467" width="820.328" height="820.327" filterUnits="userSpaceOnUse" color-interpolation-filters="sRGB">
<feFlood flood-opacity="0" result="BackgroundImageFix"/>
<feColorMatrix in="SourceAlpha" type="matrix" values="0 0 0 0 0 0 0 0 0 0 0 0 0 0 0 0 0 0 127 0" result="hardAlpha"/>
<feOffset dx="7.30142" dy="14.6028"/>
<feGaussianBlur stdDeviation="18.2536"/>
<feComposite in2="hardAlpha" operator="out"/>
<feColorMatrix type="matrix" values="0 0 0 0 0.00989583 0 0 0 0 0.168031 0 0 0 0 0.475 0 0 0 1 0"/>
<feBlend mode="normal" in2="BackgroundImageFix" result="effect1_dropShadow_123_918"/>
<feBlend mode="normal" in="SourceGraphic" in2="effect1_dropShadow_123_918" result="shape"/>
</filter>
<filter id="filter2_d_123_918" x="219.239" y="226.9" width="604.8" height="604.803" filterUnits="userSpaceOnUse" color-interpolation-filters="sRGB">
<feFlood flood-opacity="0" result="BackgroundImageFix"/>
<feColorMatrix in="SourceAlpha" type="matrix" values="0 0 0 0 0 0 0 0 0 0 0 0 0 0 0 0 0 0 127 0" result="hardAlpha"/>
<feOffset dx="7.30142" dy="14.6028"/>
<feGaussianBlur stdDeviation="18.2536"/>
<feComposite in2="hardAlpha" operator="out"/>
<feColorMatrix type="matrix" values="0 0 0 0 0.00989583 0 0 0 0 0.168031 0 0 0 0 0.475 0 0 0 0.8 0"/>
<feBlend mode="normal" in2="BackgroundImageFix" result="effect1_dropShadow_123_918"/>
<feBlend mode="normal" in="SourceGraphic" in2="effect1_dropShadow_123_918" result="shape"/>
</filter>
<filter id="filter3_d_123_918" x="181.338" y="269.944" width="600.994" height="584.694" filterUnits="userSpaceOnUse" color-interpolation-filters="sRGB">
<feFlood flood-opacity="0" result="BackgroundImageFix"/>
<feColorMatrix in="SourceAlpha" type="matrix" values="0 0 0 0 0 0 0 0 0 0 0 0 0 0 0 0 0 0 127 0" result="hardAlpha"/>
<feOffset dx="-9.60001" dy="7.2"/>
<feGaussianBlur stdDeviation="28.8"/>
<feComposite in2="hardAlpha" operator="out"/>
<feColorMatrix type="matrix" values="0 0 0 0 0 0 0 0 0 0 0 0 0 0 0 0 0 0 0.08 0"/>
<feBlend mode="normal" in2="BackgroundImageFix" result="effect1_dropShadow_123_918"/>
<feBlend mode="normal" in="SourceGraphic" in2="effect1_dropShadow_123_918" result="shape"/>
</filter>
<linearGradient id="paint0_linear_123_918" x1="512" y1="100" x2="512" y2="924" gradientUnits="userSpaceOnUse">
<stop stop-color="#F9F9F9"/>
<stop offset="1" stop-color="#E2E2E2"/>
</linearGradient>
<linearGradient id="paint1_linear_123_918" x1="512" y1="100" x2="512" y2="924" gradientUnits="userSpaceOnUse">
<stop stop-color="#F9F9F9"/>
<stop offset="1" stop-color="#E2E2E2"/>
</linearGradient>
<linearGradient id="paint2_linear_123_918" x1="666.5" y1="100" x2="366" y2="955.5" gradientUnits="userSpaceOnUse">
<stop stop-color="#30C1FF"/>
<stop offset="1" stop-color="#3380D0"/>
</linearGradient>
<linearGradient id="paint3_linear_123_918" x1="250.031" y1="250.393" x2="773.299" y2="773.661" gradientUnits="userSpaceOnUse">
<stop stop-color="#BCE4FA"/>
<stop offset="1" stop-color="white"/>
</linearGradient>
<linearGradient id="paint4_linear_123_918" x1="328.904" y1="329.266" x2="699.772" y2="700.132" gradientUnits="userSpaceOnUse">
<stop stop-color="#BCE4FA"/>
<stop offset="1" stop-color="white"/>
</linearGradient>
<linearGradient id="paint5_linear_123_918" x1="593.167" y1="166.764" x2="392.906" y2="708.425" gradientUnits="userSpaceOnUse">
<stop stop-color="white" stop-opacity="0.9"/>
<stop offset="1" stop-color="white" stop-opacity="0.58"/>
</linearGradient>
</defs>
</svg>
