<?xml version="1.0" encoding="UTF-8"?>
<svg width="512px" height="512px" viewBox="0 0 512 512" version="1.1" xmlns="http://www.w3.org/2000/svg" xmlns:xlink="http://www.w3.org/1999/xlink">
    <!-- Generator: Sketch 52.6 (67491) - http://www.bohemiancoding.com/sketch -->
    <title>Large Icon</title>
    <desc>Created with Sketch.</desc>
    <defs>
        <rect id="path-1" x="0" y="0" width="512" height="512"></rect>
        <linearGradient x1="50%" y1="100%" x2="50%" y2="0%" id="linearGradient-3">
            <stop stop-color="#3775D4" offset="0%"></stop>
            <stop stop-color="#2997E5" offset="100%"></stop>
        </linearGradient>
        <path d="M146.141456,-5.90428975e-15 L365.858544,5.90428975e-15 C416.675112,-3.43056238e-15 435.102427,5.29105984 453.680205,15.2265641 C472.257983,25.1620684 486.837932,39.7420171 496.773436,58.3197949 C506.70894,76.8975727 512,95.3248882 512,146.141456 L512,365.858544 C512,416.675112 506.70894,435.102427 496.773436,453.680205 C486.837932,472.257983 472.257983,486.837932 453.680205,496.773436 C435.102427,506.70894 416.675112,512 365.858544,512 L146.141456,512 C95.3248882,512 76.8975727,506.70894 58.3197949,496.773436 C39.7420171,486.837932 25.1620684,472.257983 15.2265641,453.680205 C5.29105984,435.102427 2.28704159e-15,416.675112 -3.93619317e-15,365.858544 L3.93619317e-15,146.141456 C-2.28704159e-15,95.3248882 5.29105984,76.8975727 15.2265641,58.3197949 C25.1620684,39.7420171 39.7420171,25.1620684 58.3197949,15.2265641 C76.8975727,5.29105984 95.3248882,3.43056238e-15 146.141456,-5.90428975e-15 Z" id="path-4"></path>
        <linearGradient x1="50%" y1="5.91451302%" x2="50%" y2="100%" id="linearGradient-6">
            <stop stop-color="#D1E6FA" offset="0%"></stop>
            <stop stop-color="#7AB5F5" offset="100%"></stop>
        </linearGradient>
    </defs>
    <g id="Large-Icon" stroke="none" stroke-width="1" fill="none" fill-rule="evenodd">
        <g id="icon">
            <mask id="mask-2" fill="white">
                <use xlink:href="#path-1"></use>
            </mask>
            <g id="Mask"></g>
            <g id="Rectangle" mask="url(#mask-2)">
                <mask id="mask-5" fill="white">
                    <use xlink:href="#path-4"></use>
                </mask>
                <use id="Mask" fill="url(#linearGradient-3)" xlink:href="#path-4"></use>
                <g id="GitLab-Logo-white" mask="url(#mask-5)" stroke="#FFFFFF">
                    <path d="M148.374834,33 L363.625166,33 C403.743509,33 418.29139,37.1771525 432.958057,45.0209717 C447.624723,52.8647908 459.135209,64.3752767 466.979028,79.0419433 C474.822847,93.70861 479,108.256491 479,148.374834 L479,363.625166 C479,403.743509 474.822847,418.29139 466.979028,432.958057 C459.135209,447.624723 447.624723,459.135209 432.958057,466.979028 C418.29139,474.822847 403.743509,479 363.625166,479 L148.374834,479 C108.256491,479 93.70861,474.822847 79.0419433,466.979028 C64.3752767,459.135209 52.8647908,447.624723 45.0209717,432.958057 C37.1771525,418.29139 33,403.743509 33,363.625166 L33,148.374834 C33,108.256491 37.1771525,93.70861 45.0209717,79.0419433 C52.8647908,64.3752767 64.3752767,52.8647908 79.0419433,45.0209717 C93.70861,37.1771525 108.256491,33 148.374834,33 Z" id="shape" stroke-width="10" fill="url(#linearGradient-3)"></path>
                    <path d="M0,0 L512,512 M512,0 L0,512 M33,0 L33,512 M159,0 L159,512 M256,0 L256,512 M353,0 L353,512 M479,0 L479,512 M0,479 L512,479 M0,353 L512,353 M0,256 L512,256 M0,159 L512,159 M0,33 L512,33 M256,479 C379.159499,479 479,379.159499 479,256 C479,132.840501 379.159499,33 256,33 C132.840501,33 33,132.840501 33,256 C33,379.159499 132.840501,479 256,479 Z M256,393 C331.663011,393 393,331.663011 393,256 C393,180.336989 331.663011,119 256,119 C180.336989,119 119,180.336989 119,256 C119,331.663011 180.336989,393 256,393 Z M256,353 C309.571621,353 353,309.571621 353,256 C353,202.428379 309.571621,159 256,159 C202.428379,159 159,202.428379 159,256 C159,309.571621 202.428379,353 256,353 Z" id="Grid" stroke-width="2" opacity="0.5" stroke-linecap="square" stroke-dasharray="10,10"></path>
                    <path d="M165.04235,114.906745 L165.04235,114.500377 L168.54235,114.500377 L168.609896,114.500382 C175.442184,114.488284 181.489614,118.920233 183.534956,125.413092 L212.369713,214.187281 L300.66623,214.187281 L329.443639,125.44275 C331.508832,118.886637 337.605884,114.446573 344.427029,114.500427 C351.26205,114.463902 357.34859,118.821037 359.537089,125.340544 L390.54699,220.939672 C390.747889,221.450994 390.907304,221.977629 391.023714,222.514458 L406.447633,269.926093 C409.308806,278.670769 406.202911,288.265406 398.763873,293.664396 L262.689631,392.613689 C259.022119,395.345002 254.007401,395.374987 250.304894,392.68577 L114.223455,293.651537 C106.8058,288.254596 103.703462,278.688802 106.538495,269.956708 L122.270899,221.578626 C122.305921,221.45812 122.343288,221.350903 122.384204,221.248544 L153.479937,125.437979 C155.247456,120.062583 159.692282,116.122988 165.04235,114.906745 Z" id="Shape-Copy" stroke-width="7" fill="url(#linearGradient-6)" fill-rule="nonzero"></path>
                </g>
            </g>
        </g>
    </g>
</svg>