<?xml version="1.0" encoding="UTF-8"?>
<svg width="256px" height="256px" viewBox="0 0 256 256" version="1.1" xmlns="http://www.w3.org/2000/svg" xmlns:xlink="http://www.w3.org/1999/xlink">
    <!-- Generator: Sketch 52.6 (67491) - http://www.bohemiancoding.com/sketch -->
    <title>Medium Icon</title>
    <desc>Created with Sketch.</desc>
    <defs>
        <rect id="path-1" x="0" y="0" width="256" height="256"></rect>
        <linearGradient x1="50%" y1="100%" x2="50%" y2="0%" id="linearGradient-3">
            <stop stop-color="#3775D4" offset="0%"></stop>
            <stop stop-color="#2997E5" offset="100%"></stop>
        </linearGradient>
        <path d="M73.0707282,-2.95214488e-15 L182.929272,2.95214488e-15 C208.337556,-1.71528119e-15 217.551214,2.64552992 226.840103,7.61328206 C236.128991,12.5810342 243.418966,19.8710086 248.386718,29.1598974 C253.35447,38.4487863 256,47.6624441 256,73.0707282 L256,182.929272 C256,208.337556 253.35447,217.551214 248.386718,226.840103 C243.418966,236.128991 236.128991,243.418966 226.840103,248.386718 C217.551214,253.35447 208.337556,256 182.929272,256 L73.0707282,256 C47.6624441,256 38.4487863,253.35447 29.1598974,248.386718 C19.8710086,243.418966 12.5810342,236.128991 7.61328206,226.840103 C2.64552992,217.551214 1.14352079e-15,208.337556 -1.96809658e-15,182.929272 L1.96809658e-15,73.0707282 C-1.14352079e-15,47.6624441 2.64552992,38.4487863 7.61328206,29.1598974 C12.5810342,19.8710086 19.8710086,12.5810342 29.1598974,7.61328206 C38.4487863,2.64552992 47.6624441,1.71528119e-15 73.0707282,-2.95214488e-15 Z" id="path-4"></path>
        <linearGradient x1="50%" y1="5.91451302%" x2="50%" y2="100%" id="linearGradient-6">
            <stop stop-color="#D1E6FA" offset="0%"></stop>
            <stop stop-color="#7AB5F5" offset="100%"></stop>
        </linearGradient>
    </defs>
    <g id="Medium-Icon" stroke="none" stroke-width="1" fill="none" fill-rule="evenodd">
        <g id="icon">
            <mask id="mask-2" fill="white">
                <use xlink:href="#path-1"></use>
            </mask>
            <g id="Mask"></g>
            <g id="Rectangle" mask="url(#mask-2)">
                <mask id="mask-5" fill="white">
                    <use xlink:href="#path-4"></use>
                </mask>
                <use id="Mask" fill="url(#linearGradient-3)" xlink:href="#path-4"></use>
                <g id="GitLab-Logo-white" mask="url(#mask-5)" stroke="#FFFFFF">
                    <g transform="translate(-2.000000, -7.000000)">
                        <path d="M79.226172,30 L180.773828,30 C199.629449,30 206.466953,31.9632617 213.360287,35.6498567 C220.25362,39.3364517 225.663548,44.74638 229.350143,51.6397134 C233.036738,58.5330467 235,65.3705506 235,84.226172 L235,185.773828 C235,204.629449 233.036738,211.466953 229.350143,218.360287 C225.663548,225.25362 220.25362,230.663548 213.360287,234.350143 C206.466953,238.036738 199.629449,240 180.773828,240 L79.226172,240 C60.3705506,240 53.5330467,238.036738 46.6397134,234.350143 C39.74638,230.663548 34.3364517,225.25362 30.6498567,218.360287 C26.9632617,211.466953 25,204.629449 25,185.773828 L25,84.226172 C25,65.3705506 26.9632617,58.5330467 30.6498567,51.6397134 C34.3364517,44.74638 39.74638,39.3364517 46.6397134,35.6498567 C53.5330467,31.9632617 60.3705506,30 79.226172,30 Z" id="shape" stroke-width="4.7" fill="url(#linearGradient-3)" fill-rule="evenodd"></path>
                        <path d="M10,15 L251,256 M251,15 L10,256 M25.5332031,0.76291725 L25.5332031,270.927752 M84.8417969,0.76291725 L84.8417969,270.927752 M130.5,0.76291725 L130.5,270.927752 M176.158203,0.76291725 L176.158203,270.927752 M235.466797,0.76291725 L235.466797,270.927752 M0.872223189,240.466797 L258.790546,240.466797 M0.872223189,181.158203 L258.790546,181.158203 M0.872223189,135.5 L258.790546,135.5 M0.872223189,89.8417969 L258.790546,89.8417969 M0.872223189,30.5332031 L258.790546,30.5332031 M130.5,240.466797 C188.471561,240.466797 235.466797,193.471561 235.466797,135.5 C235.466797,77.5284389 188.471561,30.5332031 130.5,30.5332031 C72.5284389,30.5332031 25.5332031,77.5284389 25.5332031,135.5 C25.5332031,193.471561 72.5284389,240.466797 130.5,240.466797 Z M130.5,199.986328 C166.114816,199.986328 194.986328,171.114816 194.986328,135.5 C194.986328,99.8851844 166.114816,71.0136719 130.5,71.0136719 C94.8851844,71.0136719 66.0136719,99.8851844 66.0136719,135.5 C66.0136719,171.114816 94.8851844,199.986328 130.5,199.986328 Z M130.5,181.158203 C155.716329,181.158203 176.158203,160.716329 176.158203,135.5 C176.158203,110.283671 155.716329,89.8417969 130.5,89.8417969 C105.283671,89.8417969 84.8417969,110.283671 84.8417969,135.5 C84.8417969,160.716329 105.283671,181.158203 130.5,181.158203 Z" id="Grid" stroke-width="0.94" fill="none" opacity="0.600000024" stroke-linecap="square" stroke-dasharray="4.699999999999999,4.699999999999999"></path>
                        <path d="M82.4474637,61.3752996 L82.4474637,61.1626972 L84.2849637,61.1626972 L84.3204687,61.1627 C87.9080016,61.156371 91.0850659,63.4760228 92.1603969,66.8768563 L107.310276,113.344695 L153.708609,113.344695 L168.828328,66.8924692 C169.914118,63.458435 173.11723,61.1345511 176.698992,61.1627232 C180.287954,61.1436163 183.485487,63.424056 184.636095,66.8388844 L200.929339,116.880809 C201.034974,117.148707 201.118822,117.424644 201.18008,117.70594 L209.284,142.523453 C210.788756,147.10528 209.15538,152.132188 205.245294,154.959378 L133.748648,206.755274 C131.823248,208.183819 129.192191,208.199492 127.248465,206.792998 L55.7480483,154.952647 C51.8491992,152.126528 50.2176949,147.114737 51.7087052,142.539497 L59.9756051,117.213349 C59.993854,117.151365 60.0135298,117.095176 60.0344609,117.04264 L76.3728634,66.8898487 C77.3021749,64.0741862 79.6375915,62.0118145 82.4474637,61.3752996 Z" id="Shape-Copy" stroke-width="3.675" fill="url(#linearGradient-6)" fill-rule="nonzero"></path>
                    </g>
                </g>
            </g>
        </g>
    </g>
</svg>