<?xml version="1.0" encoding="UTF-8"?>
<svg width="128px" height="128px" viewBox="0 0 128 128" version="1.1" xmlns="http://www.w3.org/2000/svg" xmlns:xlink="http://www.w3.org/1999/xlink">
    <!-- Generator: Sketch 52.6 (67491) - http://www.bohemiancoding.com/sketch -->
    <title>Small Icon</title>
    <desc>Created with Sketch.</desc>
    <defs>
        <rect id="path-1" x="0" y="0" width="128" height="128"></rect>
        <linearGradient x1="50%" y1="100%" x2="50%" y2="0%" id="linearGradient-3">
            <stop stop-color="#3775D4" offset="0%"></stop>
            <stop stop-color="#2997E5" offset="100%"></stop>
        </linearGradient>
        <path d="M36.5353641,-1.47607244e-15 L91.4646359,1.47607244e-15 C104.168778,-8.57640595e-16 108.775607,1.32276496 113.420051,3.80664103 C118.064496,6.2905171 121.709483,9.93550428 124.193359,14.5799487 C126.677235,19.2243932 128,23.8312221 128,36.5353641 L128,91.4646359 C128,104.168778 126.677235,108.775607 124.193359,113.420051 C121.709483,118.064496 118.064496,121.709483 113.420051,124.193359 C108.775607,126.677235 104.168778,128 91.4646359,128 L36.5353641,128 C23.8312221,128 19.2243932,126.677235 14.5799487,124.193359 C9.93550428,121.709483 6.2905171,118.064496 3.80664103,113.420051 C1.32276496,108.775607 5.71760396e-16,104.168778 -9.84048292e-16,91.4646359 L9.84048292e-16,36.5353641 C-5.71760396e-16,23.8312221 1.32276496,19.2243932 3.80664103,14.5799487 C6.2905171,9.93550428 9.93550428,6.2905171 14.5799487,3.80664103 C19.2243932,1.32276496 23.8312221,8.57640595e-16 36.5353641,-1.47607244e-15 Z" id="path-4"></path>
        <linearGradient x1="50%" y1="5.91451302%" x2="50%" y2="100%" id="linearGradient-6">
            <stop stop-color="#D1E6FA" offset="0%"></stop>
            <stop stop-color="#7AB5F5" offset="100%"></stop>
        </linearGradient>
    </defs>
    <g id="Small-Icon" stroke="none" stroke-width="1" fill="none" fill-rule="evenodd">
        <g id="icon">
            <mask id="mask-2" fill="white">
                <use xlink:href="#path-1"></use>
            </mask>
            <g id="Mask"></g>
            <g id="Rectangle" mask="url(#mask-2)">
                <mask id="mask-5" fill="white">
                    <use xlink:href="#path-4"></use>
                </mask>
                <use id="Mask" fill="url(#linearGradient-3)" xlink:href="#path-4"></use>
                <g id="GitLab-Logo-white" mask="url(#mask-5)" stroke="#FFFFFF">
                    <g transform="translate(-1.000000, -3.500000)">
                        <path d="M5,7.5 L125.5,128 M125.5,7.5 L5,128 M12.7666016,0.381458625 L12.7666016,135.463876 M42.4208984,0.381458625 L42.4208984,135.463876 M65.25,0.381458625 L65.25,135.463876 M88.0791016,0.381458625 L88.0791016,135.463876 M117.733398,0.381458625 L117.733398,135.463876 M0.436111594,120.233398 L129.395273,120.233398 M0.436111594,90.5791016 L129.395273,90.5791016 M0.436111594,67.75 L129.395273,67.75 M0.436111594,44.9208984 L129.395273,44.9208984 M0.436111594,15.2666016 L129.395273,15.2666016 M65.25,120.233398 C94.2357806,120.233398 117.733398,96.7357806 117.733398,67.75 C117.733398,38.7642194 94.2357806,15.2666016 65.25,15.2666016 C36.2642194,15.2666016 12.7666016,38.7642194 12.7666016,67.75 C12.7666016,96.7357806 36.2642194,120.233398 65.25,120.233398 Z M65.25,99.9931641 C83.0574078,99.9931641 97.4931641,85.5574078 97.4931641,67.75 C97.4931641,49.9425922 83.0574078,35.5068359 65.25,35.5068359 C47.4425922,35.5068359 33.0068359,49.9425922 33.0068359,67.75 C33.0068359,85.5574078 47.4425922,99.9931641 65.25,99.9931641 Z M65.25,90.5791016 C77.8581646,90.5791016 88.0791016,80.3581646 88.0791016,67.75 C88.0791016,55.1418354 77.8581646,44.9208984 65.25,44.9208984 C52.6418354,44.9208984 42.4208984,55.1418354 42.4208984,67.75 C42.4208984,80.3581646 52.6418354,90.5791016 65.25,90.5791016 Z" id="Grid" stroke-width="0.5" fill="none" opacity="0.800000012" stroke-linecap="square" stroke-dasharray="2.349999904632568,2.349999904632568"></path>
                        <path d="M34.191311,19.943486 L34.191311,19.8057532 L35.385686,19.8057532 L35.4088309,19.8057551 C37.7446607,19.8016423 39.8137862,21.3094322 40.5143901,23.5208614 L50.3866036,53.7422975 L80.6257023,53.7422975 L90.47826,23.531024 C91.1856806,21.2979986 93.2717632,19.7874628 95.6038874,19.8057701 C97.9406598,19.7933537 100.023103,21.2756461 100.772748,23.4961668 L111.371076,55.9948918 C111.448709,56.1834905 111.50959,56.3784734 111.55304,56.5775925 L116.833641,72.7175974 C117.814307,75.6978372 116.749847,78.9674888 114.202367,80.8058745 L67.6142043,114.491337 C66.3609908,115.419352 64.6490142,115.429531 63.3838895,114.515852 L16.7932948,80.8014971 C14.2531372,78.9638087 13.1898967,75.7039897 14.1616055,72.7280327 L19.5265159,56.3336046 L19.5265159,56.3307765 L19.5854695,56.1501618 L30.2330903,23.5293076 C30.8387856,21.6977072 32.3607334,20.3567046 34.191311,19.943486 Z" id="Shape-Copy" stroke-width="2.38875" fill="url(#linearGradient-6)" fill-rule="nonzero"></path>
                    </g>
                </g>
            </g>
        </g>
    </g>
</svg>