<?xml version="1.0" encoding="UTF-8"?>
<svg width="72px" height="68px" viewBox="0 0 72 68" version="1.1" xmlns="http://www.w3.org/2000/svg" xmlns:xlink="http://www.w3.org/1999/xlink">
    <!-- Generator: Sketch 52.6 (67491) - http://www.bohemiancoding.com/sketch -->
    <title>Group 2</title>
    <desc>Created with Sketch.</desc>
    <g id="Page-1" stroke="none" stroke-width="1" fill="none" fill-rule="evenodd">
        <g id="Group-2" transform="translate(4.000000, 3.000000)">
            <path d="M31.3035267,43.3854774 L11.8842473,29.0974621 C8.36629901,26.5256557 4.30796146,24.7436292 0,23.8790585 L8.85738294,1.41422646 C9.03845049,0.974429465 9.35665444,0.601084023 9.76713323,0.346825732 C10.6103214,-0.163055175 11.6904865,-0.106498854 12.4727103,0.48848694 C12.8533089,0.786092486 13.1278686,1.1930378 13.2573277,1.65142663 L19.2265071,19.4414388 L43.3974562,19.4414388 L49.3666357,1.65142663 C49.499629,1.19552127 49.7735962,0.790604533 50.151253,0.491781387 C50.9334769,-0.103204407 52.0136419,-0.159760728 52.8568301,0.350120179 C53.2682322,0.603355947 53.5867144,0.977027913 53.7665804,1.41752091 L62.6070535,23.8922363 C58.2994129,24.7535431 54.2402053,26.5309447 50.7194242,29.0974621 L31.3035267,43.3986552 C24.8426498,48.147077 24.6850088,48.2579641 31.3035267,43.3854774 Z" id="Shape-Copy-2" fill="#ECECEC" opacity="0.699999988"></path>
            <path d="M62.6243299,24.2225806 L62.5352577,24 C58.3333377,24.8433614 54.3737535,26.5837306 50.9393814,29.0967742 L32,43.1 C38.4494845,47.8709677 44.0643299,52.016129 44.0643299,52.016129 L57.28,42.3387097 L57.3129897,42.3129032 C63.0038186,38.110856 65.1689371,30.7365039 62.6243299,24.2225806 Z" id="Path-Copy" fill="#8D8D8D" opacity="0.699999988"></path>
            <path d="M20,52.916129 L26.4989691,57.7258065 L30.457732,60.6483871 C31.4093862,61.3549142 32.7258716,61.3549142 33.6775258,60.6483871 L37.6362887,57.7258065 L44.1352577,52.916129 C44.1352577,52.916129 38.5138144,48.7580645 32.0643299,44 C25.6148454,48.7580645 20,52.916129 20,52.916129 Z" id="Path-Copy-2" fill="#3A3A3A" opacity="0.699999988"></path>
            <path d="M12.737383,29.1096774 C9.30577424,26.591455 5.34703872,24.8465573 1.14480571,24 L1.05903251,24.2225806 C-1.49123226,30.738239 0.674619129,38.1177179 6.37037272,42.3193548 L6.40006344,42.3419355 L6.4792387,42.3967742 L19.6157335,52.016129 C19.6157335,52.016129 25.223981,47.8709677 31.6800634,43.1 L12.737383,29.1096774 Z" id="Path-Copy-3" fill="#8D8D8D" opacity="0.699999988"></path>
            <path d="M21.33969,18.0363738 L42.0370631,18.0363738 L47.3793117,2.05889273 C47.6250721,1.21321668 48.1294192,0.464970898 48.8515031,-0.108086255 C50.2692868,-1.19059904 52.2165095,-1.2929411 53.7556693,-0.358591321 C54.5165763,0.111559948 55.1085562,0.80876374 55.4539486,1.65828657 L64.0721597,23.6513699 L64.1612319,23.8739506 L64.1676126,23.890098 C67.036515,31.2435725 64.5944129,39.5657305 58.231925,44.2697163 L58.1482711,44.3338737 L44.9407477,54.0052958 L38.4398943,58.816366 L34.4854549,61.7357458 C32.8258881,62.9678414 30.5408367,62.9678414 28.8855934,61.7389467 L24.9249462,58.8149732 L18.4341308,54.0112982 L5.34046685,44.42245 L5.1893635,44.3153894 L5.183102,44.3103582 C-1.23780214,39.5737931 -3.68472245,31.2366573 -0.807194068,23.8849507 L-0.716743065,23.6503469 L7.9343982,1.62581945 C8.27106843,0.804969388 8.86007639,0.111265767 9.63444526,-0.370080568 C11.1601122,-1.29616691 13.1073349,-1.19382485 14.5462669,-0.0949398902 C15.2501506,0.457547392 15.7604568,1.21678478 15.9736002,1.98297314 L21.33969,18.0363738 Z" id="Path-Copy-4" stroke="#FFFFFF" stroke-width="4"></path>
        </g>
    </g>
</svg>