<?xml version="1.0" encoding="UTF-8"?>
<svg width="22px" height="22px" viewBox="0 0 22 22" version="1.1" xmlns="http://www.w3.org/2000/svg" xmlns:xlink="http://www.w3.org/1999/xlink">
    <!-- Generator: Sketch 52.6 (67491) - http://www.bohemiancoding.com/sketch -->
    <title>GitLab-Logo-white</title>
    <desc>Created with Sketch.</desc>
    <g id="GitLab-Logo-white" stroke="none" stroke-width="1" fill="none" fill-rule="evenodd">
        <path d="M6.22941561,4.00068701 C5.93994769,4.00110804 5.6833514,4.18703959 5.59280306,4.46198113 L3.90627975,9.6502068 C3.90627975,9.65487307 3.9029467,9.65820612 3.90161348,9.663539 L3.04701945,12.287316 C2.91865148,12.6820737 3.05914534,13.1145902 3.39498987,13.3585582 L10.7756958,18.7214357 C10.9091646,18.818224 11.090021,18.8171443 11.2223245,18.7187693 L18.6043637,13.3592249 C18.9412557,13.1151067 19.0818945,12.6813358 18.9523342,12.2859828 L18.1124055,9.70820187 C18.1078323,9.68446486 18.1009099,9.66124145 18.0917406,9.63887443 L16.4078838,4.45598164 C16.3158572,4.18229287 16.0586802,3.99847986 15.769938,4.0000204 C15.4809311,3.99775514 15.2242845,4.18435804 15.1373251,4.4599813 L13.5334614,9.39822821 L8.46855862,9.39822821 L6.86202851,4.4599813 C6.77550675,4.1857744 6.5209482,3.99951204 6.23341527,4.0000204 L6.22941561,4.0000204 L6.22941561,4.00068701 Z M6.22541595,4.94727321 L7.6746261,9.39889482 L4.7828719,9.39889482 L6.22541595,4.94727321 Z M15.7766041,4.94727321 L17.2218146,9.39889482 L14.3273939,9.39889482 L15.7766041,4.94727321 Z M8.71453771,10.1534973 L13.2888156,10.1534973 L11.855604,14.5651224 L10.9996768,17.1922324 L8.71453771,10.154164 L8.71453771,10.1534973 Z M5.03818353,10.1568304 L7.91927197,10.1568304 L9.97643045,16.4896254 L5.03818353,10.1568304 Z M14.0827481,10.1568304 L16.966503,10.1568304 L12.4982161,15.8816771 L12.0255896,16.4909587 L13.9980886,10.4194747 L14.0827481,10.1568304 Z M4.40023776,10.5721284 L9.05184237,16.5362881 L3.84028536,12.7486101 C3.76873017,12.697052 3.73857514,12.6052406 3.76562504,12.5212961 L4.40023776,10.5721284 Z M17.5991158,10.5721284 L18.2337286,12.5199629 C18.2610597,12.6036185 18.2314652,12.6953615 18.1604015,12.7472769 L18.1604015,12.7486101 L12.9475112,16.5349549 L12.9641765,16.5116236 L17.5991158,10.5721284 Z" id="Shape" fill="#FFFFFF" fill-rule="nonzero"></path>
    </g>
</svg>