<?xml version="1.0" encoding="UTF-8"?>
<svg width="14px" height="14px" viewBox="0 0 14 14" version="1.1" xmlns="http://www.w3.org/2000/svg" xmlns:xlink="http://www.w3.org/1999/xlink">
    <!-- Generator: Sketch 52.6 (67491) - http://www.bohemiancoding.com/sketch -->
    <title>merge-request</title>
    <desc>Created with Sketch.</desc>
    <g id="Page-1" stroke="none" stroke-width="1" fill="none" fill-rule="evenodd">
        <g id="merge-request" transform="translate(-1.000000, -1.000000)" fill="#000000">
            <path d="M10.34,1.22 C10.0471825,0.927546622 9.57281755,0.927546622 9.28,1.22 L7.53,2.97 L7,3.5 L7.53,4.03 L9.28,5.78 C9.46697058,5.98065318 9.74855554,6.06324918 10.0142889,5.99538554 C10.2800223,5.9275219 10.4875219,5.72002228 10.5553855,5.45428891 C10.6232492,5.18855554 10.5406532,4.90697058 10.34,4.72 L9.87,4.25 L10.5,4.25 C11.19,4.25 11.75,4.81 11.75,5.5 L11.75,10.114 C10.5720597,10.4842823 9.84063458,11.6588084 10.0279434,12.8792869 C10.2152522,14.0997653 11.2652319,15.0008963 12.5,15.0008963 C13.7347681,15.0008963 14.7847478,14.0997653 14.9720566,12.8792869 C15.1593654,11.6588084 14.4279403,10.4842823 13.25,10.114 L13.25,5.5 C13.25,4.77065465 12.9602687,4.07118139 12.4445436,3.55545635 C11.9288186,3.03973131 11.2293453,2.75 10.5,2.75 L9.87,2.75 L10.34,2.28 C10.6324534,1.98718245 10.6324534,1.51281755 10.34,1.22 Z M13.5,12.5 C13.5,13.0522847 13.0522847,13.5 12.5,13.5 C11.9477153,13.5 11.5,13.0522847 11.5,12.5 C11.5,11.9477153 11.9477153,11.5 12.5,11.5 C13.0522847,11.5 13.5,11.9477153 13.5,12.5 Z M4.5,12.5 C4.5,13.0522847 4.05228475,13.5 3.5,13.5 C2.94771525,13.5 2.5,13.0522847 2.5,12.5 C2.5,11.9477153 2.94771525,11.5 3.5,11.5 C4.05228475,11.5 4.5,11.9477153 4.5,12.5 Z M6,12.5 C5.99940902,13.7824177 5.0285596,14.8564106 3.75271049,14.9860426 C2.47686139,15.1156747 1.30983718,14.2588994 1.05132221,13.002808 C0.792807245,11.7467167 1.52665143,10.4987255 2.75,10.114 L2.75,5.886 C1.57205974,5.51571768 0.840634577,4.3411916 1.02794341,3.12071315 C1.21525224,1.90023469 2.2652319,0.999103732 3.5,0.999103732 C4.7347681,0.999103732 5.78474776,1.90023469 5.97205659,3.12071315 C6.15936542,4.3411916 5.42794026,5.51571768 4.25,5.886 L4.25,10.114 C5.29171451,10.44194 6.00018266,11.4078857 6,12.5 Z M4.5,3.5 C4.5,4.05228475 4.05228475,4.5 3.5,4.5 C2.94771525,4.5 2.5,4.05228475 2.5,3.5 C2.5,2.94771525 2.94771525,2.5 3.5,2.5 C4.05228475,2.5 4.5,2.94771525 4.5,3.5 Z" id="Shape"></path>
        </g>
    </g>
</svg>